<svg width="37" height="37" viewBox="0 0 37 37" fill="none" xmlns="http://www.w3.org/2000/svg">
<path d="M20.4035 29.3153C20.3498 29.2617 20.3071 29.1979 20.278 29.1277C20.2489 29.0575 20.234 28.9823 20.234 28.9063C20.234 28.8304 20.2489 28.7551 20.278 28.6849C20.3071 28.6148 20.3498 28.551 20.4035 28.4973L29.8226 19.0782L5.78128 19.0782C5.62796 19.0782 5.48091 19.0173 5.37249 18.9089C5.26407 18.8005 5.20316 18.6534 5.20316 18.5001C5.20316 18.3467 5.26407 18.1997 5.37249 18.0913C5.48091 17.9829 5.62796 17.922 5.78128 17.922L29.8226 17.922L20.4035 8.50285C20.3498 8.44914 20.3072 8.38537 20.2781 8.31519C20.2491 8.24501 20.2341 8.16979 20.2341 8.09383C20.2341 8.01786 20.2491 7.94265 20.2781 7.87246C20.3072 7.80228 20.3498 7.73852 20.4035 7.6848C20.4572 7.63109 20.521 7.58848 20.5912 7.55941C20.6614 7.53034 20.7366 7.51538 20.8125 7.51538C20.8885 7.51538 20.9637 7.53034 21.0339 7.55941C21.1041 7.58848 21.1678 7.63109 21.2216 7.6848L31.6278 18.0911C31.6816 18.1447 31.7242 18.2085 31.7533 18.2787C31.7824 18.3489 31.7974 18.4241 31.7974 18.5001C31.7974 18.5761 31.7824 18.6513 31.7533 18.7215C31.7242 18.7916 31.6816 18.8554 31.6278 18.9091L21.2216 29.3153C21.1679 29.3691 21.1041 29.4117 21.0339 29.4408C20.9637 29.4699 20.8885 29.4849 20.8125 29.4849C20.7366 29.4849 20.6613 29.4699 20.5911 29.4408C20.521 29.4117 20.4572 29.3691 20.4035 29.3153Z" fill="#DAFF0D"/>
</svg>
