<svg width="37" height="37" viewBox="0 0 37 37" fill="none" xmlns="http://www.w3.org/2000/svg">
<path d="M16.5965 7.68474C16.6502 7.73843 16.6929 7.80219 16.722 7.87238C16.7511 7.94256 16.766 8.01779 16.766 8.09377C16.766 8.16974 16.7511 8.24497 16.722 8.31516C16.6929 8.38534 16.6502 8.4491 16.5965 8.50279L7.17739 17.9219L31.2187 17.9219C31.372 17.9219 31.5191 17.9828 31.6275 18.0912C31.7359 18.1996 31.7968 18.3467 31.7968 18.5C31.7968 18.6533 31.7359 18.8004 31.6275 18.9088C31.5191 19.0172 31.372 19.0781 31.2187 19.0781L7.17739 19.0781L16.5965 28.4972C16.6502 28.551 16.6928 28.6147 16.7219 28.6849C16.7509 28.7551 16.7659 28.8303 16.7659 28.9063C16.7659 28.9822 16.7509 29.0574 16.7219 29.1276C16.6928 29.1978 16.6502 29.2616 16.5965 29.3153C16.5428 29.369 16.479 29.4116 16.4088 29.4407C16.3386 29.4697 16.2634 29.4847 16.1875 29.4847C16.1115 29.4847 16.0363 29.4697 15.9661 29.4407C15.8959 29.4116 15.8322 29.369 15.7784 29.3153L5.37219 18.909C5.31844 18.8553 5.2758 18.7916 5.24671 18.7214C5.21761 18.6512 5.20264 18.576 5.20264 18.5C5.20264 18.424 5.21761 18.3488 5.24671 18.2786C5.2758 18.2084 5.31844 18.1447 5.37219 18.091L15.7784 7.68474C15.8321 7.63099 15.8959 7.58835 15.9661 7.55925C16.0363 7.53016 16.1115 7.51519 16.1875 7.51519C16.2634 7.51519 16.3387 7.53016 16.4089 7.55925C16.479 7.58835 16.5428 7.63099 16.5965 7.68474Z" fill="white"/>
</svg>
