<svg width="37" height="37" viewBox="0 0 37 37" fill="none" xmlns="http://www.w3.org/2000/svg">
<path d="M20.4035 29.3153C20.3498 29.2616 20.3071 29.1978 20.278 29.1276C20.2489 29.0574 20.234 28.9822 20.234 28.9062C20.234 28.8303 20.2489 28.755 20.278 28.6848C20.3071 28.6147 20.3498 28.5509 20.4035 28.4972L29.8226 19.0781L5.78128 19.0781C5.62796 19.0781 5.48091 19.0172 5.37249 18.9088C5.26407 18.8004 5.20316 18.6533 5.20316 18.5C5.20316 18.3467 5.26407 18.1996 5.37249 18.0912C5.48091 17.9828 5.62796 17.9219 5.78128 17.9219L29.8226 17.9219L20.4035 8.50276C20.3498 8.44905 20.3072 8.38528 20.2781 8.3151C20.2491 8.24492 20.2341 8.1697 20.2341 8.09374C20.2341 8.01777 20.2491 7.94255 20.2781 7.87237C20.3072 7.80219 20.3498 7.73843 20.4035 7.68471C20.4572 7.631 20.521 7.58839 20.5912 7.55932C20.6614 7.53025 20.7366 7.51529 20.8125 7.51529C20.8885 7.51529 20.9637 7.53025 21.0339 7.55932C21.1041 7.58839 21.1678 7.631 21.2216 7.68471L31.6278 18.091C31.6816 18.1447 31.7242 18.2084 31.7533 18.2786C31.7824 18.3488 31.7974 18.424 31.7974 18.5C31.7974 18.576 31.7824 18.6512 31.7533 18.7214C31.7242 18.7916 31.6816 18.8553 31.6278 18.909L21.2216 29.3153C21.1679 29.369 21.1041 29.4117 21.0339 29.4407C20.9637 29.4698 20.8885 29.4848 20.8125 29.4848C20.7366 29.4848 20.6613 29.4698 20.5911 29.4407C20.521 29.4117 20.4572 29.369 20.4035 29.3153Z" fill="none"/>
</svg>
