<svg width="36" height="36" viewBox="0 0 36 36" fill="none" xmlns="http://www.w3.org/2000/svg">
<path d="M7.47696 19.8521C7.5292 19.7998 7.59124 19.7583 7.65953 19.73C7.72781 19.7017 7.80101 19.6871 7.87493 19.6871C7.94885 19.6871 8.02205 19.7017 8.09034 19.73C8.15862 19.7583 8.22066 19.7998 8.2729 19.8521L17.4374 29.0166L17.4374 5.62505C17.4374 5.47586 17.4967 5.33279 17.6022 5.2273C17.7077 5.12181 17.8507 5.06255 17.9999 5.06255C18.1491 5.06255 18.2922 5.12181 18.3977 5.2273C18.5032 5.33279 18.5624 5.47586 18.5624 5.62505L18.5624 29.0166L27.727 19.8521C27.7792 19.7998 27.8413 19.7584 27.9096 19.7301C27.9778 19.7018 28.051 19.6872 28.1249 19.6872C28.1988 19.6872 28.272 19.7018 28.3403 19.7301C28.4086 19.7584 28.4706 19.7998 28.5229 19.8521C28.5752 19.9043 28.6166 19.9664 28.6449 20.0347C28.6732 20.103 28.6877 20.1761 28.6877 20.25C28.6877 20.324 28.6732 20.3971 28.6449 20.4654C28.6166 20.5337 28.5752 20.5958 28.5229 20.648L18.3979 30.773C18.3457 30.8253 18.2836 30.8668 18.2153 30.8951C18.147 30.9234 18.0739 30.938 17.9999 30.938C17.926 30.938 17.8528 30.9234 17.7845 30.8951C17.7162 30.8668 17.6542 30.8253 17.602 30.773L7.47696 20.648C7.42466 20.5958 7.38317 20.5337 7.35487 20.4654C7.32656 20.3972 7.31199 20.324 7.31199 20.25C7.31199 20.1761 7.32656 20.1029 7.35487 20.0346C7.38317 19.9664 7.42466 19.9043 7.47696 19.8521Z" fill="black"/>
</svg>
