<svg width="40" height="32" viewBox="0 0 40 32" fill="none" xmlns="http://www.w3.org/2000/svg">
<g clip-path="url(#clip0_3_3970)">
<path d="M30.3923 20.867C30.1514 20.3315 29.9104 19.7867 29.6628 19.246C29.134 18.0961 28.6334 16.9316 28.0645 15.8018C27.1904 14.0683 27.094 12.2586 27.5465 10.4261C28.0578 8.35129 28.6695 6.29925 29.2411 4.23919C29.3201 3.95407 29.4192 3.67431 29.5343 3.31423C28.774 3.52305 28.102 3.77738 27.4086 3.88312C24.9617 4.25659 22.8856 3.51502 21.2257 1.66644C21.0276 1.44558 20.8576 1.18322 20.7385 0.911485C20.61 0.614322 20.6635 0.303772 20.962 0.113694C21.2538 -0.072368 21.543 -0.0161478 21.7839 0.223457C21.9111 0.350622 22.0115 0.504558 22.1266 0.642432C24.3848 3.35037 28.3322 3.32494 30.5422 0.588889C31.0027 0.0186552 31.2891 -0.109848 31.6412 0.094954C31.9879 0.297079 32.008 0.61566 31.771 1.31172C30.9277 3.79344 30.0416 6.26177 29.2826 8.76893C28.9359 9.91207 28.8181 11.1302 28.6495 12.3215C28.5477 13.0457 28.6615 13.7658 28.9694 14.4432C29.8649 16.4202 30.7671 18.3933 31.6532 20.3744C32.455 22.1694 33.1404 24.0019 33.2783 25.991C33.4054 27.8195 33.1176 29.5972 32.5996 31.3427C32.4457 31.8594 32.1231 32.0588 31.7536 31.9557C31.3494 31.8433 31.1981 31.5113 31.3507 30.925C31.7161 29.5195 32.0026 28.1047 31.9665 26.6429C31.9571 26.2882 31.925 25.9348 31.9022 25.5667C31.1406 25.4543 30.5181 25.7099 29.901 25.9121C27.4327 26.7259 25.2629 28.0699 23.2885 29.7391C22.7356 30.2062 22.2109 30.7055 21.6849 31.2021C20.5618 32.2636 19.3812 32.2716 18.2621 31.1807C16.348 29.3121 14.2477 27.7031 11.7955 26.6108C10.8638 26.1958 9.86925 25.9228 8.89744 25.6042C8.67658 25.5319 8.43162 25.5319 8.10367 25.4864C7.91225 26.6121 7.98319 27.6843 8.14248 28.7485C8.24957 29.462 8.43429 30.1647 8.60162 30.8688C8.74886 31.4926 8.61768 31.8647 8.18933 31.9611C7.80115 32.0481 7.49863 31.8139 7.32595 31.2342C6.46123 28.3242 6.3073 25.4034 7.45847 22.5415C8.28973 20.4748 9.25484 18.4616 10.1584 16.4229C10.39 15.8995 10.6041 15.3681 10.8464 14.8487C11.3778 13.7109 11.4287 12.529 11.2292 11.3109C10.7139 8.16791 9.66846 5.18154 8.54941 2.21794C8.40083 1.82306 8.22146 1.43888 8.08493 1.03999C7.96044 0.677235 7.9417 0.307788 8.34193 0.0895997C8.74484 -0.131265 9.03933 0.0815682 9.26823 0.397472C10.1437 1.60754 11.3149 2.34778 12.7887 2.56597C14.7564 2.85778 16.4135 2.25408 17.7374 0.760226C17.8967 0.579519 18.0305 0.374716 18.2032 0.207394C18.4455 -0.028195 18.7373 -0.0777223 19.0238 0.128418C19.3075 0.333221 19.3571 0.630384 19.2259 0.934241C19.1442 1.12432 19.0077 1.29432 18.8805 1.46164C17.21 3.65423 14.1447 4.55107 11.4769 3.63013C11.1663 3.52305 10.8611 3.40391 10.4435 3.25132C10.5332 3.58596 10.584 3.83761 10.667 4.07856C11.4113 6.24705 12.094 8.43027 12.4808 10.6992C12.7833 12.4674 12.703 14.1741 11.8999 15.8179C11.2118 17.226 10.5693 18.657 9.91074 20.0786C9.78759 20.3463 9.68185 20.622 9.57075 20.8884C13.8582 23.1693 26.3953 23.1613 30.3923 20.8643V20.867ZM8.358 24.0662C8.63508 24.1518 8.77831 24.1933 8.91886 24.2402C10.1155 24.6391 11.3551 24.9456 12.5009 25.4583C15.004 26.576 17.1538 28.2291 19.1081 30.142C19.8055 30.8233 20.1401 30.8046 20.867 30.142C21.5791 29.4914 22.2805 28.8235 23.0355 28.2265C25.4503 26.315 28.0779 24.8211 31.1446 24.2174C31.2811 24.1907 31.4069 24.1023 31.5876 24.0207C31.3855 23.417 31.1981 22.8574 30.9973 22.2551C23.6311 24.5548 16.3346 24.5574 8.97106 22.2551C8.76492 22.8668 8.57752 23.4237 8.36067 24.0675L8.358 24.0662Z" fill="#333333" stroke="#333333"/>
<path d="M34.5595 13.3417C35.0615 13.3417 35.5634 13.3417 36.0654 13.3417C36.9703 13.3417 37.8738 13.3403 38.7787 13.3417C38.9888 13.3417 39.2044 13.3336 39.4105 13.3684C39.7492 13.426 39.9379 13.6402 39.9419 13.9936C39.9459 14.3523 39.7425 14.5571 39.4132 14.6227C39.2097 14.6642 38.9942 14.6521 38.7827 14.6521C37.6074 14.6548 36.4322 14.6521 35.2556 14.6562C35.024 14.6562 34.7911 14.6843 34.4551 14.7057C34.6331 14.9413 34.7362 15.1153 34.8741 15.2572C35.4831 15.8836 36.1029 16.5007 36.7159 17.1232C36.8645 17.2731 37.0211 17.419 37.1456 17.5863C37.3477 17.8567 37.3651 18.1565 37.1336 18.4135C36.8712 18.7027 36.5513 18.7053 36.2394 18.4885C36.0922 18.3868 35.9637 18.2556 35.8365 18.1284C34.7268 17.0214 33.6158 15.9158 32.5115 14.8047C31.8127 14.1006 31.8141 13.8905 32.5262 13.173C33.6078 12.0821 34.6974 10.9965 35.783 9.90957C35.9101 9.7824 36.0319 9.64319 36.1752 9.5361C36.471 9.31256 36.7949 9.28847 37.0934 9.51736C37.3692 9.72752 37.3812 10.1465 37.0774 10.4838C36.5727 11.042 36.04 11.5774 35.4938 12.0955C35.1458 12.4261 34.7522 12.7072 34.3788 13.011C34.4404 13.1208 34.5006 13.2306 34.5622 13.3417H34.5595Z" fill="#333333"/>
<path d="M5.36642 14.656C3.98233 14.656 2.59824 14.6573 1.21416 14.6547C0.973213 14.6547 0.726915 14.6654 0.494002 14.6145C0.159358 14.5422 -0.057491 14.2732 0.0134536 13.9573C0.0616423 13.7404 0.293216 13.5195 0.500695 13.3964C0.661324 13.3014 0.911638 13.3455 1.12179 13.3442C2.26762 13.3402 3.41344 13.3442 4.55926 13.3415C4.84839 13.3415 5.13886 13.3161 5.61807 13.2947C5.24461 12.8984 4.99162 12.62 4.72792 12.3523C4.13493 11.7513 3.5232 11.1703 2.94627 10.5546C2.57549 10.1597 2.57147 9.79562 2.86328 9.51854C3.14304 9.2535 3.51785 9.27625 3.89934 9.65105C5.16697 10.8986 6.42523 12.1555 7.67011 13.4258C8.07436 13.8395 8.09845 14.1259 7.7116 14.5261C6.45468 15.8259 5.16563 17.0962 3.88729 18.3746C3.82438 18.4375 3.7454 18.487 3.66643 18.5312C3.36659 18.7038 3.08147 18.6704 2.8432 18.4254C2.59824 18.1724 2.58754 17.8605 2.80037 17.6035C3.12564 17.21 3.48974 16.8486 3.84847 16.4831C4.3906 15.9317 4.94209 15.3909 5.48823 14.8447C5.44807 14.7805 5.40658 14.7176 5.36642 14.6533V14.656Z" fill="#333333"/>
<path d="M19.305 16.2636C19.3238 16.1525 19.2997 15.9076 19.4068 15.7536C19.5273 15.581 19.7602 15.3962 19.9529 15.3882C20.1443 15.3802 20.4723 15.5475 20.5165 15.7014C20.6195 16.0588 20.6396 16.4618 20.5914 16.8339C20.5499 17.1592 20.2581 17.3425 19.9235 17.3051C19.5995 17.2689 19.3773 17.0681 19.3332 16.7214C19.3184 16.6023 19.3171 16.4818 19.3037 16.2636H19.305Z" fill="#333333"/>
</g>
<defs>
<clipPath id="clip0_3_3970">
<rect width="39.9404" height="32" fill="white"/>
</clipPath>
</defs>
</svg>
