<svg width="32" height="33" viewBox="0 0 32 33" fill="none" xmlns="http://www.w3.org/2000/svg">
<g clip-path="url(#clip0_3_3975)">
<path d="M23.4804 13.0391C24.2345 12.4877 24.8168 11.8523 25.3052 11.1513C25.9938 10.166 26.4846 10.3415 27.0248 11.2527C27.6974 12.3851 28.2487 13.5645 28.6048 14.833C28.6567 15.0196 28.7198 15.21 28.7334 15.4016C28.7569 15.7157 28.5949 15.9493 28.3007 16.0383C27.9978 16.1298 27.7382 16 27.5997 15.7243C27.4897 15.503 27.4402 15.2521 27.3673 15.0122C27.078 14.0566 26.6972 13.1429 26.178 12.2726C25.7218 12.6954 25.3274 13.0762 24.917 13.4372C24.4583 13.8415 24.0071 14.2618 23.5101 14.6166C23.0465 14.9467 22.657 14.7959 22.4666 14.2655C22.3727 14.0046 22.3307 13.7265 22.2565 13.4582C21.0313 9.05455 18.7504 5.23443 15.7919 1.79014C15.74 1.72957 15.6646 1.68753 15.5459 1.59605C15.4322 1.69619 15.3011 1.78644 15.2022 1.90265C12.177 5.47675 9.84788 9.42544 8.70308 14.0108C8.49167 14.8589 8.06639 15.0283 7.39633 14.4831C6.72873 13.9391 6.11183 13.3321 5.4875 12.7374C5.32926 12.5866 5.22665 12.3777 5.04738 12.1218C4.26976 13.2826 3.85808 14.3965 3.58486 15.5549C1.93442 22.5449 6.41224 29.4421 13.5036 30.582C18.5439 31.3918 22.6298 29.5756 25.66 25.4452C25.8083 25.2437 25.9357 25.0249 26.0951 24.8333C26.3226 24.5588 26.6181 24.5131 26.9148 24.6997C27.193 24.8753 27.2078 25.1609 27.1114 25.4427C27.0582 25.5973 26.9544 25.7357 26.8641 25.8754C22.207 33.1102 11.8111 34.1178 5.85591 27.9116C1.47452 23.3435 0.756239 16.6763 4.06454 11.2737C4.09297 11.2267 4.11646 11.1748 4.14613 11.1278C4.71235 10.2612 5.06098 10.2488 5.70756 11.0586C6.25894 11.7497 6.81156 12.4407 7.62627 13.0107C7.75485 12.6509 7.8723 12.353 7.96996 12.0501C9.37809 7.68228 11.7406 3.87823 14.7967 0.485864C15.3803 -0.161949 15.7005 -0.165658 16.3013 0.496991C19.4489 3.96724 21.8349 7.88503 23.2393 12.3752C23.3036 12.5817 23.3864 12.782 23.4804 13.0391Z" fill="#333333" stroke="#333333"/>
<path d="M13.0869 18.7507C13.4466 18.4255 13.6543 18.2524 13.8447 18.0633C14.7534 17.162 15.6559 16.2558 16.5621 15.3521C16.6993 15.2149 16.8353 15.074 16.9861 14.9516C17.2606 14.729 17.5635 14.7068 17.8107 14.9676C18.0518 15.2211 18.0382 15.5289 17.8181 15.8009C17.6611 15.995 17.4794 16.1693 17.3014 16.3449C16.4113 17.2239 15.5199 18.0991 14.5766 19.0276C14.8276 19.2959 15.0254 19.5184 15.2343 19.7286C15.9798 20.4778 16.729 21.222 17.4745 21.9712C17.6117 22.1084 17.7588 22.2432 17.8626 22.4039C18.0258 22.6598 18.0407 22.9417 17.8169 23.1704C17.5956 23.3979 17.3137 23.4053 17.0529 23.2409C16.8909 23.1395 16.7537 22.9936 16.6165 22.8564C15.6893 21.9353 14.767 21.0094 13.8398 20.0883C13.6469 19.8967 13.4442 19.7174 13.1499 19.443C13.1227 19.7595 13.0918 19.9635 13.0894 20.1674C13.0832 20.9179 13.0955 21.6695 13.0856 22.4212C13.0782 23.0777 12.9101 23.3237 12.4935 23.3422C12.0719 23.3595 11.8926 23.1123 11.8864 22.4583C11.8778 21.6238 11.884 20.7893 11.884 19.9548C11.884 18.5356 11.879 17.1175 11.8852 15.6983C11.8877 15.048 12.0731 14.7785 12.4749 14.7884C12.8742 14.7983 13.0782 15.0888 13.0844 15.702C13.0931 16.6453 13.0869 17.5898 13.0869 18.7519V18.7507Z" fill="#333333" stroke="#333333"/>
<path d="M28.9595 22.9059C28.716 23.0048 28.465 23.1223 28.2029 23.21C26.9233 23.6341 25.5919 23.2125 24.7858 22.1369C23.9896 21.0762 23.9674 19.6619 24.7289 18.5554C25.4757 17.47 26.8368 16.9903 28.1102 17.3624C29.3959 17.7382 30.2712 18.8422 30.312 20.1836C30.3355 20.9612 30.3194 21.7401 30.3169 22.5177C30.3169 22.8243 30.3355 23.1556 29.9733 23.2916C29.611 23.4276 29.3242 23.3089 29.1165 22.9826C29.093 22.9455 29.0263 22.9368 28.9607 22.9071L28.9595 22.9059ZM27.2905 18.4578C26.2891 18.4318 25.4361 19.2688 25.4237 20.2912C25.4114 21.279 26.1915 22.1036 27.1768 22.1444C28.1868 22.1852 29.0646 21.3766 29.1079 20.3641C29.1499 19.3912 28.2845 18.4837 27.2905 18.4578Z" fill="#333333" stroke="#333333"/>
<path d="M15.269 28.3085C10.1656 28.1477 5.93626 23.9864 5.72362 19.0524C5.71249 18.8027 5.70384 18.5468 5.75082 18.3044C5.81263 17.988 6.08091 17.8075 6.36649 17.8792C6.56553 17.9286 6.80784 18.1462 6.86842 18.3391C6.97474 18.6766 6.94507 19.0549 6.98958 19.4134C7.51623 23.5859 10.6651 26.6444 14.8363 27.0388C15.0588 27.0598 15.2813 27.0697 15.5014 27.1043C15.9737 27.1785 16.143 27.3541 16.127 27.7249C16.1109 28.0872 16.0904 28.2714 15.6428 28.3085C15.5316 28.3171 15.2307 28.3085 15.2677 28.3085H15.269Z" fill="#333333" stroke="#333333"/>
<path d="M21.1254 23.3585C19.6876 23.3473 18.575 22.5314 18.1695 21.2444C17.7615 19.9463 18.2375 18.5382 19.339 17.7816C20.4195 17.0398 21.8969 17.0633 22.9292 17.8422C23.0392 17.925 23.1542 18.0103 23.2407 18.1154C23.4595 18.3787 23.5115 18.6643 23.2778 18.9474C23.0664 19.2021 22.7919 19.1984 22.5237 19.0673C22.3259 18.9709 22.1602 18.8102 21.9636 18.71C21.1811 18.3132 20.1957 18.4962 19.6827 19.1217C19.1474 19.7745 19.1128 20.677 19.5949 21.3693C20.0956 22.0863 21.0797 22.3336 21.8993 21.9367C22.0724 21.8527 22.222 21.7216 22.3889 21.6227C22.7635 21.4002 23.0738 21.42 23.2889 21.6709C23.5275 21.9503 23.4744 22.2903 23.1097 22.6142C22.5237 23.1359 21.8338 23.3869 21.1217 23.356L21.1254 23.3585Z" fill="#333333" stroke="#333333"/>
</g>
<defs>
<clipPath id="clip0_3_3975">
<rect width="32" height="33" fill="white"/>
</clipPath>
</defs>
</svg>
