<svg width="228" height="86" viewBox="0 0 228 86" fill="none" xmlns="http://www.w3.org/2000/svg">
<path fill-rule="evenodd" clip-rule="evenodd" d="M125.712 10.3995C119.182 13.6985 121.841 22.8995 129.324 22.8995C133.791 22.8995 136.524 20.3945 136.524 16.2995C136.524 12.3375 133.519 9.49951 129.324 9.49951C128.22 9.49951 126.786 9.85651 125.712 10.3995ZM0.0014642 24.9995C-0.0925358 25.1645 4.35146 38.7995 9.87746 55.2995L19.9245 85.2995L29.4975 85.4065C34.7625 85.4655 39.2045 85.3755 39.3695 85.2065C39.6385 84.9305 20.6255 27.1835 19.6875 25.4315C19.2775 24.6645 0.426464 24.2505 0.0014642 24.9995ZM90.9245 30.1295C84.9415 31.1525 81.1145 32.7685 77.4585 35.8165C61.0745 49.4755 65.5395 75.9095 85.4315 83.0175C88.8255 84.2295 98.0895 84.5575 101.124 83.5725C108.343 81.2285 113.758 76.8875 116.816 70.9905C118.915 66.9435 119.111 67.0995 111.929 67.0995H105.734L104.766 68.6325C98.6375 78.3415 80.7705 73.5505 79.6585 61.8995L79.5245 60.4995L99.5245 60.2995L119.524 60.0995L119.644 56.0995C120.105 40.6795 105.654 27.6125 90.9245 30.1295ZM156.924 30.2835C147.897 31.3525 142.316 36.5975 141.825 44.4725C141.19 54.6575 146.445 59.2185 161.924 61.9185C168.482 63.0625 170.924 64.8605 170.924 68.5445C170.924 77.3505 154.122 77.5675 151.116 68.8005L150.601 67.2995L145.463 67.0555C139.496 66.7725 139.724 66.7105 139.724 68.6285C139.724 77.6335 148.919 84.0995 161.724 84.0995C173.689 84.0995 181.179 79.5075 182.765 71.1995C183.115 69.3645 183.476 69.5755 184.264 72.0775C188.884 86.7315 218.169 88.9605 225.071 75.1835C230.843 63.6615 224.595 55.0235 208.524 52.3075C199.18 50.7285 197.182 49.5705 197.145 45.7105C197.07 38.0165 211.167 37.1465 213.52 44.6995C213.989 46.2055 214.313 46.2865 219.837 46.2935C225.751 46.3005 225.741 46.3065 224.902 42.8075C220.861 25.9615 189.813 25.4375 185.873 42.1495C183.273 53.1775 189.128 58.8455 206.437 62.0595C212.903 63.2595 215.503 65.6855 214.732 69.7985C213.282 77.5255 197.063 76.6445 194.93 68.7225L194.493 67.0995H191.167C184.957 67.0995 182.924 66.7345 182.924 65.6175C182.924 59.0265 176.312 54.2345 164.524 52.2825C155.598 50.8045 153.324 49.4925 153.324 45.8215C153.324 38.0155 166.388 37.0505 169.732 44.6095L170.489 46.3225L175.807 46.2115L181.124 46.0995L181.244 44.6685C181.969 36.0215 169.708 28.7695 156.924 30.2835ZM123.821 57.1885L123.924 82.8995L128.724 83.0155C131.364 83.0795 133.93 83.0305 134.427 82.9065L135.33 82.6825L135.227 57.1915L135.124 31.6995L129.421 31.5885L123.718 31.4775L123.821 57.1885ZM100.63 41.7055C103.464 43.0935 105.74 45.2705 106.869 47.6725C108.606 51.3675 109.618 51.0995 93.9245 51.0995C78.2145 51.0995 79.2615 51.3885 81.1585 47.5825C84.3785 41.1205 93.6925 38.3095 100.63 41.7055Z" fill="white"/>
<path fill-rule="evenodd" clip-rule="evenodd" d="M44.769 29.3C38.727 47.494 34.759 58.852 34.302 59.265C33.896 59.631 33.656 60.171 33.769 60.465C34.088 61.298 54.338 60.851 54.818 60C55.46 58.862 74.366 1.61301 74.366 0.807007C74.366 0.0190068 74.13 0 64.433 0H54.5L44.769 29.3Z" fill="#FFC300"/>
<path fill-rule="evenodd" clip-rule="evenodd" d="M44.769 29.3C38.727 47.494 34.759 58.852 34.302 59.265C33.896 59.631 33.656 60.171 33.769 60.465C34.088 61.298 54.338 60.851 54.818 60C55.46 58.862 74.366 1.61301 74.366 0.807007C74.366 0.0190068 74.13 0 64.433 0H54.5L44.769 29.3Z" fill="#FFC300"/>
</svg>
