<svg width="100" height="22" viewBox="0 0 100 22" fill="none" xmlns="http://www.w3.org/2000/svg">
<path d="M18.036 4.436L14.526 17H11.556L9.198 8.054L6.732 17L3.78 17.018L0.396 4.436H3.096L5.31 14.192L7.866 4.436H10.674L13.086 14.138L15.318 4.436H18.036ZM26.5135 17.126C25.3375 17.126 24.2575 16.85 23.2735 16.298C22.2895 15.746 21.5095 14.984 20.9335 14.012C20.3575 13.028 20.0695 11.918 20.0695 10.682C20.0695 9.458 20.3575 8.36 20.9335 7.388C21.5095 6.404 22.2895 5.636 23.2735 5.084C24.2575 4.532 25.3375 4.256 26.5135 4.256C27.7015 4.256 28.7815 4.532 29.7535 5.084C30.7375 5.636 31.5115 6.404 32.0755 7.388C32.6515 8.36 32.9395 9.458 32.9395 10.682C32.9395 11.918 32.6515 13.028 32.0755 14.012C31.5115 14.984 30.7375 15.746 29.7535 16.298C28.7695 16.85 27.6895 17.126 26.5135 17.126ZM26.5135 14.876C27.2695 14.876 27.9355 14.708 28.5115 14.372C29.0875 14.024 29.5375 13.532 29.8615 12.896C30.1855 12.26 30.3475 11.522 30.3475 10.682C30.3475 9.842 30.1855 9.11 29.8615 8.486C29.5375 7.85 29.0875 7.364 28.5115 7.028C27.9355 6.692 27.2695 6.524 26.5135 6.524C25.7575 6.524 25.0855 6.692 24.4975 7.028C23.9215 7.364 23.4715 7.85 23.1475 8.486C22.8235 9.11 22.6615 9.842 22.6615 10.682C22.6615 11.522 22.8235 12.26 23.1475 12.896C23.4715 13.532 23.9215 14.024 24.4975 14.372C25.0855 14.708 25.7575 14.876 26.5135 14.876ZM42.2943 17L39.5223 12.104H38.3343V17H35.8143V4.436H40.5303C41.5023 4.436 42.3303 4.61 43.0143 4.958C43.6983 5.294 44.2083 5.756 44.5443 6.344C44.8923 6.92 45.0663 7.568 45.0663 8.288C45.0663 9.116 44.8263 9.866 44.3463 10.538C43.8663 11.198 43.1523 11.654 42.2043 11.906L45.2103 17H42.2943ZM38.3343 10.214H40.4403C41.1243 10.214 41.6343 10.052 41.9703 9.728C42.3063 9.392 42.4743 8.93 42.4743 8.342C42.4743 7.766 42.3063 7.322 41.9703 7.01C41.6343 6.686 41.1243 6.524 40.4403 6.524H38.3343V10.214ZM55.4375 17L50.8655 11.402V17H48.3455V4.436H50.8655V10.07L55.4375 4.436H58.4795L53.2955 10.664L58.6235 17H55.4375ZM67.1131 17.126C65.9371 17.126 64.8571 16.85 63.8731 16.298C62.8891 15.746 62.1091 14.984 61.5331 14.012C60.9571 13.028 60.6691 11.918 60.6691 10.682C60.6691 9.458 60.9571 8.36 61.5331 7.388C62.1091 6.404 62.8891 5.636 63.8731 5.084C64.8571 4.532 65.9371 4.256 67.1131 4.256C68.3011 4.256 69.3811 4.532 70.3531 5.084C71.3371 5.636 72.1111 6.404 72.6751 7.388C73.2511 8.36 73.5391 9.458 73.5391 10.682C73.5391 11.918 73.2511 13.028 72.6751 14.012C72.1111 14.984 71.3371 15.746 70.3531 16.298C69.3691 16.85 68.2891 17.126 67.1131 17.126ZM67.1131 14.876C67.8691 14.876 68.5351 14.708 69.1111 14.372C69.6871 14.024 70.1371 13.532 70.4611 12.896C70.7851 12.26 70.9471 11.522 70.9471 10.682C70.9471 9.842 70.7851 9.11 70.4611 8.486C70.1371 7.85 69.6871 7.364 69.1111 7.028C68.5351 6.692 67.8691 6.524 67.1131 6.524C66.3571 6.524 65.6851 6.692 65.0971 7.028C64.5211 7.364 64.0711 7.85 63.7471 8.486C63.4231 9.11 63.2611 9.842 63.2611 10.682C63.2611 11.522 63.4231 12.26 63.7471 12.896C64.0711 13.532 64.5211 14.024 65.0971 14.372C65.6851 14.708 66.3571 14.876 67.1131 14.876ZM78.8979 4.436V12.212C78.8979 13.064 79.1199 13.718 79.5639 14.174C80.0079 14.618 80.6319 14.84 81.4359 14.84C82.2519 14.84 82.8819 14.618 83.3259 14.174C83.7699 13.718 83.9919 13.064 83.9919 12.212V4.436H86.5299V12.194C86.5299 13.262 86.2959 14.168 85.8279 14.912C85.3719 15.644 84.7539 16.196 83.9739 16.568C83.2059 16.94 82.3479 17.126 81.3999 17.126C80.4639 17.126 79.6119 16.94 78.8439 16.568C78.0879 16.196 77.4879 15.644 77.0439 14.912C76.5999 14.168 76.3779 13.262 76.3779 12.194V4.436H78.8979ZM98.5147 4.436V6.47H95.1667V17H92.6467V6.47H89.2987V4.436H98.5147Z" fill="white"/>
</svg>
