<svg width="33" height="36" viewBox="0 0 33 36" fill="none" xmlns="http://www.w3.org/2000/svg">
<g clip-path="url(#clip0_3_3981)">
<path d="M19.5066 12.1569C19.3499 13.1134 19.2455 14.0368 19.0366 14.9369C18.8085 15.9221 18.5117 16.895 18.1888 17.8542C17.9923 18.4396 17.4728 18.6622 16.9864 18.4712C16.5549 18.3022 16.3515 17.8116 16.5027 17.2771C16.5563 17.0874 16.6415 16.9074 16.6909 16.7164C16.9369 15.7627 17.2392 14.8187 17.4 13.8513C17.5704 12.8275 17.6048 11.7818 17.6968 10.7457C17.7037 10.6619 17.7023 10.5767 17.6996 10.4915C17.6845 10.0627 17.8164 9.71232 18.2259 9.51444C18.6491 9.30969 19.0036 9.47459 19.3018 9.76179C20.1909 10.6165 21.2916 10.8941 22.4734 10.9491C23.2264 10.9848 23.4875 10.8323 23.5823 10.1067C23.673 9.4155 23.6964 8.69407 23.6016 8.00562C23.5013 7.27869 23.0643 6.67681 22.336 6.43221C21.62 6.19173 20.8807 5.96362 20.1346 5.88117C18.6711 5.71902 17.2007 5.70253 15.8183 6.35663C15.0955 6.69879 14.4785 7.17425 13.9729 7.80499C11.4472 10.9587 9.54532 14.4655 8.05848 18.2074C7.0897 20.6465 6.25696 23.1296 5.63309 25.6814C5.54652 26.0332 5.33353 26.3534 5.24146 26.7051C5.06694 27.3812 4.89929 28.0642 4.80173 28.7554C4.7289 29.2721 4.98174 29.6953 5.45445 29.9372C5.85433 30.1419 6.25696 30.3865 6.68707 30.4758C7.55829 30.6545 8.32782 31.0447 9.10696 31.4364C13.5592 33.6708 18.3042 34.421 23.2306 34.0912C25.825 33.9181 28.3617 33.3781 30.8241 32.5165C31.1168 32.4148 31.4109 32.3062 31.7132 32.2471C32.3096 32.1303 32.6889 32.3543 32.8318 32.8669C32.961 33.3286 32.7741 33.7188 32.2436 33.925C31.5882 34.1806 30.9162 34.3963 30.2429 34.6011C26.5917 35.7114 22.8527 36.1827 19.0476 35.9354C15.0378 35.6743 11.2108 34.6959 7.65998 32.7487C7.24773 32.5233 6.76677 32.4299 6.32567 32.254C5.72654 32.0163 5.10679 31.8088 4.54614 31.4968C3.46605 30.8977 2.94662 29.9193 3.00433 28.6922C3.03594 28.0243 3.14862 27.3441 3.33413 26.701C3.80959 25.052 4.34001 23.4182 4.86082 21.7829C6.22673 17.4955 7.94855 13.3676 10.4509 9.60376C11.1366 8.57177 11.8635 7.56177 12.6399 6.59573C13.7846 5.17211 15.3058 4.37372 17.1183 4.12912C18.902 3.88864 20.6677 3.96834 22.3896 4.50152C24.4192 5.12951 25.4897 6.60398 25.4773 8.73117C25.4732 9.43062 25.4155 10.1438 25.2588 10.824C24.9757 12.058 24.0853 12.7781 22.8169 12.7355C21.9265 12.7052 21.0401 12.4867 20.1538 12.3397C19.9381 12.304 19.7292 12.2215 19.5066 12.1569Z" fill="#333333" stroke="#333333"/>
<path d="M21.6966 18.7446C23.4486 18.8683 25.1855 19.0456 26.7383 19.9704C27.0956 20.1834 27.3773 20.0253 27.6879 19.8838C28.926 19.3218 30.2053 18.9027 31.574 18.8188C31.7417 18.8078 31.9134 18.768 32.0756 18.7955C32.5497 18.8738 32.9124 19.3122 32.8808 19.7381C32.8478 20.1806 32.5552 20.5104 32.0577 20.5461C30.4802 20.6575 29.0346 21.1838 27.6522 21.9107C27.1492 22.1745 26.7383 22.1388 26.2436 21.8282C24.0354 20.4417 21.6471 20.2356 19.186 20.968C17.8888 21.3542 16.9667 22.2845 16.2686 23.4154C15.8866 24.0365 15.5898 24.7098 15.2421 25.353C14.9893 25.8188 14.6293 25.9974 14.2143 25.8971C13.6935 25.7707 13.387 25.2568 13.5932 24.7153C14.7474 21.6881 16.8664 19.0772 20.6921 18.8477C21.0287 18.8271 21.3626 18.7804 21.6979 18.746L21.6966 18.7446Z" fill="#333333" stroke="#333333"/>
<path d="M23.5685 31.3457C22.4884 31.1726 21.4015 31.0352 20.331 30.8098C19.7978 30.6971 19.5807 30.2491 19.6851 29.7888C19.8019 29.2694 20.1991 29.0028 20.7542 29.0756C20.8367 29.0866 20.9164 29.1265 21.0002 29.1347C21.9209 29.2378 22.8388 29.3779 23.7623 29.4274C25.1543 29.503 26.4432 29.1594 27.5673 28.2965C27.6566 28.2278 27.7542 28.1659 27.8559 28.1219C28.2997 27.9337 28.7298 28.0477 28.9786 28.4146C29.241 28.8008 29.2438 29.2611 28.8453 29.5497C28.2351 29.9922 27.5838 30.4017 26.8981 30.7095C25.8551 31.1781 24.7283 31.2894 23.5685 31.3457Z" fill="#333333" stroke="#333333"/>
</g>
<defs>
<clipPath id="clip0_3_3981">
<rect width="33" height="36" fill="white"/>
</clipPath>
</defs>
</svg>
