<svg width="28" height="28" viewBox="0 0 28 28" fill="none" xmlns="http://www.w3.org/2000/svg">
<path fill-rule="evenodd" clip-rule="evenodd" d="M18.1909 8.00913C18.6879 7.51209 19.4938 7.51209 19.9908 8.00913L25.081 13.0993L25.0817 13.1C25.2038 13.2221 25.2958 13.3627 25.3579 13.5128C25.4201 13.6629 25.4545 13.8274 25.4545 14C25.4545 14.1719 25.4204 14.3358 25.3587 14.4854C25.328 14.5597 25.2901 14.6317 25.2448 14.7003C25.1982 14.7709 25.1438 14.8378 25.0817 14.8999L25.081 14.9007L19.9908 19.9909C19.4938 20.4878 18.6879 20.4878 18.1909 19.9909C17.6939 19.4938 17.6939 18.688 18.1909 18.1909L21.1092 15.2727H3.81814C3.11523 15.2727 2.54541 14.7029 2.54541 14C2.54541 13.2971 3.11523 12.7273 3.81814 12.7273H21.1092L18.1909 9.80904C17.6939 9.312 17.6939 8.50616 18.1909 8.00913Z" fill="none"/>
</svg>
