<svg width="28" height="28" viewBox="0 0 28 28" fill="none" xmlns="http://www.w3.org/2000/svg">
<path fill-rule="evenodd" clip-rule="evenodd" d="M9.80901 19.9909C9.31197 20.4878 8.50613 20.4878 8.00909 19.9909L2.91893 14.9007L2.91818 14.8999C2.79616 14.7779 2.70409 14.6373 2.64198 14.4872C2.57975 14.3371 2.54541 14.1726 2.54541 14C2.54541 13.8281 2.57949 13.6642 2.64124 13.5146C2.67186 13.4403 2.70981 13.3683 2.7551 13.2997C2.80169 13.2291 2.85605 13.1622 2.91818 13.1L2.91893 13.0993L8.00909 8.00913C8.50613 7.51209 9.31197 7.51209 9.80901 8.00913C10.306 8.50616 10.306 9.312 9.80901 9.80904L6.89077 12.7273H24.1818C24.8847 12.7273 25.4545 13.2971 25.4545 14C25.4545 14.7029 24.8847 15.2727 24.1818 15.2727H6.89077L9.80901 18.1909C10.306 18.688 10.306 19.4938 9.80901 19.9909Z" fill="none"/>
</svg>
