<svg width="48" height="32" viewBox="0 0 48 32" fill="none" xmlns="http://www.w3.org/2000/svg">
<g clip-path="url(#clip0_3_3985)">
<path d="M36.8029 16.1253H33.6883C33.6546 16.4173 33.592 16.6628 33.6032 16.9035C33.6899 18.6622 33.4171 20.3744 32.8442 22.0224C32.1558 24.0009 31.8927 26.018 31.997 28.1008C32.0403 28.9673 32.0082 29.837 31.9986 30.7052C31.997 30.9571 32.0403 31.262 31.9184 31.4449C31.7595 31.6824 31.4771 31.9103 31.2059 31.9825C30.8641 32.0723 30.5881 31.8332 30.4677 31.4866C30.4212 31.3518 30.3891 31.2042 30.3907 31.063C30.4244 28.9673 30.3618 26.8636 30.5416 24.7808C30.6523 23.5035 31.1 22.247 31.4674 21.0018C31.851 19.7053 32.0435 18.3975 32.0307 17.048C32.0098 14.8416 32.0307 12.6352 32.0194 10.4288C32.0194 10.0709 32.0034 9.70025 31.9103 9.35845C31.6504 8.41331 31.0583 7.98808 30.0473 8.1341C29.3204 8.23841 28.9241 8.04585 28.5935 7.37671C28.133 6.4444 27.3371 6.25024 26.408 6.70436C26.278 6.76694 26.1673 6.86964 26.0373 6.9274C25.4532 7.18575 25.0649 7.03652 24.8242 6.45724C24.7552 6.29196 24.7456 6.10261 24.6798 5.93573C24.2593 4.86382 23.1168 4.54931 22.1974 5.25375C22.0546 5.36287 21.9502 5.51852 21.8106 5.63245C21.3341 6.01596 21.0581 6.00794 20.5686 5.60356C20.4306 5.48963 20.3199 5.33719 20.1787 5.22808C19.2689 4.53326 18.0766 4.88949 17.7509 5.9935C17.6097 6.47008 17.5808 6.99159 17.576 7.49224C17.5567 9.4082 17.576 11.3258 17.5679 13.2433C17.5615 15.1496 16.841 15.9199 14.9315 16.0803C14.824 16.09 14.7181 16.114 14.5592 16.1397C14.2977 17.0127 14.6796 17.7444 15.1208 18.4424C15.7595 19.4501 16.3789 20.4787 17.1074 21.419C18.6864 23.4553 19.4293 25.7147 19.2432 28.2934C19.1838 29.1214 19.2416 29.9558 19.2271 30.7886C19.2239 31.0373 19.2416 31.3502 19.1068 31.5171C18.9271 31.7386 18.6238 31.9279 18.3446 31.9825C17.9755 32.0547 17.7428 31.7706 17.6722 31.4176C17.6225 31.1737 17.6273 30.9154 17.6257 30.6634C17.6193 29.5065 17.6097 28.3479 17.6193 27.191C17.6305 25.7741 17.2679 24.4871 16.4254 23.3254C15.79 22.4476 15.2428 21.5057 14.6138 20.6231C13.659 19.2848 12.8438 17.8952 12.7716 16.1413H11.2809C11.2584 16.4895 11.2231 16.8057 11.2215 17.1202C11.2151 19.0377 11.2263 20.9537 11.2151 22.8712C11.2055 24.7391 10.2924 25.6345 8.39735 25.6601C8.0363 25.6649 7.67365 25.6698 7.3126 25.6585C6.46855 25.6328 5.73522 25.336 5.28592 24.6027C4.99548 24.1293 4.63443 23.9993 4.12094 24.025C3.54327 24.0539 2.96238 24.0491 2.38631 24.0186C1.08815 23.9512 0.232868 23.1713 0.0467284 21.8892C0.000193458 21.5699 0.00821673 21.2409 0.00821673 20.9152C0.00661207 15.5267 0.00821673 10.1367 0.00821673 4.74828C0.00821673 4.53166 -0.00301585 4.31342 0.0130307 4.0968C0.122147 2.62533 1.05445 1.71228 2.53876 1.65451C3.29615 1.62563 4.05515 1.6497 4.84785 1.6497C5.02757 1.41542 5.19285 1.18435 5.37418 0.967721C6.39955 -0.240583 9.4516 -0.340071 10.5412 0.802442C11.0434 1.32877 11.2263 1.96742 11.2231 2.68631C11.2119 4.60387 11.2215 6.51982 11.2231 8.43738C11.2231 8.79362 11.2231 9.14985 11.2231 9.5815H12.7331C13.0412 7.83564 14.004 6.66264 15.9232 6.42836C16.0194 6.11866 16.1045 5.81378 16.2088 5.5137C16.8555 3.65552 18.6415 2.83554 20.4868 3.54479C20.8414 3.68119 21.1303 3.90103 21.5988 3.71649C23.6303 2.91577 24.6685 3.21905 26.0967 4.96491C26.3342 4.94084 26.6134 4.90554 26.8926 4.88308C27.8859 4.80605 28.7716 5.08045 29.4456 5.82019C29.8066 6.21654 30.1693 6.42515 30.7213 6.49094C32.0596 6.6498 32.9598 7.42645 33.3978 8.71178C33.4909 8.98297 33.5631 9.26218 33.6626 9.59434H36.7403C36.7644 9.26859 36.8045 8.95569 36.8061 8.64278C36.8125 6.72522 36.8703 4.80605 36.7901 2.89331C36.7179 1.17312 37.9005 -0.0881407 39.5758 0.0771386C39.7186 0.0915805 39.8662 0.0931851 40.009 0.0771386C41.3537 -0.0608616 42.4385 0.337092 43.1012 1.6497C43.8746 1.6497 44.632 1.63365 45.3878 1.65291C47.023 1.69302 47.9601 2.60447 47.9649 4.22356C47.9793 9.93773 47.9793 15.6519 47.9649 21.3677C47.9601 23.1585 47.0952 23.9929 45.2851 24.033C45.0316 24.0378 44.778 24.0378 44.5261 24.0298C43.727 24.0057 43.0803 24.0491 42.4882 24.853C41.5976 26.0629 38.5761 26.0099 37.5058 24.938C36.957 24.3876 36.8029 23.7041 36.8077 22.9515C36.819 21.1077 36.8109 19.2624 36.8109 17.417C36.8109 17.0255 36.8109 16.6356 36.8109 16.1253H36.8029ZM38.3642 12.9096C38.3642 16.0162 38.3642 19.1228 38.3642 22.2294C38.3642 22.5182 38.3498 22.8103 38.3803 23.0959C38.4493 23.7394 38.6916 23.9785 39.3495 24.0202C39.8165 24.0491 40.2882 24.0378 40.7568 24.0186C41.2687 23.9961 41.5447 23.7025 41.5832 23.1954C41.6024 22.9435 41.5976 22.6899 41.5976 22.438C41.5976 16.0803 41.5976 9.72271 41.5976 3.36507C41.5976 3.11154 41.6121 2.858 41.5864 2.60768C41.511 1.87435 41.2318 1.66895 40.3075 1.64007C38.8793 1.59514 38.5183 1.74919 38.3883 2.50979C38.3402 2.79061 38.3643 3.08586 38.3626 3.3747C38.3626 6.55352 38.3626 9.73234 38.3626 12.9112L38.3642 12.9096ZM6.42202 12.9096C6.42202 15.9423 6.43485 18.9751 6.4172 22.0079C6.40597 24.0218 6.30809 24.0876 8.66853 24.0282C8.74074 24.0266 8.81295 24.0186 8.88356 24.0057C9.28632 23.9351 9.53504 23.7057 9.58158 23.2949C9.61046 23.0445 9.61849 22.791 9.61849 22.5375C9.6217 16.0386 9.6249 9.53978 9.61849 3.04093C9.61849 1.86633 9.39062 1.65772 8.22565 1.63847C8.08123 1.63526 7.93681 1.63847 7.79239 1.64007C6.61618 1.66575 6.42362 1.85509 6.42202 3.05377C6.4172 6.3385 6.42041 9.62483 6.42041 12.9096H6.42202ZM43.3098 3.30089C43.0675 4.55573 43.114 21.6292 43.3579 22.4444C44.0239 22.4444 44.709 22.4685 45.391 22.438C46.0971 22.4059 46.3346 22.1443 46.3891 21.4351C46.4036 21.2554 46.3923 21.074 46.3923 20.8943C46.3923 15.5508 46.3923 10.2057 46.3923 4.86222C46.3923 4.57338 46.4068 4.27973 46.3586 3.99891C46.2912 3.61059 46.0537 3.32335 45.6365 3.31051C44.8535 3.28805 44.0704 3.3041 43.3098 3.3041V3.30089ZM4.73553 3.28965C3.8995 3.28965 3.18222 3.27361 2.46655 3.29447C1.95787 3.31052 1.67545 3.61059 1.63854 4.11605C1.61768 4.40328 1.6241 4.69373 1.6241 4.98096C1.6241 10.2522 1.6241 15.5219 1.6241 20.7932C1.6241 21.0451 1.61287 21.3003 1.64175 21.5506C1.71236 22.1556 1.92738 22.3979 2.52752 22.43C3.23999 22.4685 3.95406 22.4396 4.73553 22.4396V3.29126V3.28965ZM11.2665 14.4404C12.616 14.4404 13.874 14.4629 15.1289 14.4308C15.7194 14.4147 15.9617 14.1467 15.9906 13.5386C16.0243 12.8245 15.9986 12.1072 15.9986 11.2648C14.3731 11.2102 12.8454 11.2102 11.2665 11.2616V14.4388V14.4404ZM36.7259 11.3065C35.6845 11.191 34.6768 11.1749 33.6097 11.3225C33.6113 12.4169 33.5374 13.4022 33.6578 14.4452C34.757 14.4099 35.7455 14.5607 36.7997 14.32C36.7997 13.5209 36.8045 12.7732 36.7965 12.0238C36.7949 11.8152 36.7564 11.6066 36.7243 11.3065H36.7259ZM15.9408 9.59273V8.18866C14.8978 8.29617 14.6555 8.54169 14.5335 9.59273H15.9408Z" fill="#333333" stroke="#333333"/>
</g>
<defs>
<clipPath id="clip0_3_3985">
<rect width="47.9679" height="32" fill="white"/>
</clipPath>
</defs>
</svg>
