<svg width="46" height="46" viewBox="0 0 46 46" fill="none" xmlns="http://www.w3.org/2000/svg">
<path d="M39.4258 28.4817L42.1666 25.7409L39.4258 23L32.5833 29.8425L16.1574 13.4167L22.9999 6.57421L20.2591 3.83337L17.5183 6.57421L14.7774 3.83337L10.6758 7.93504L7.93492 5.19421L5.19409 7.93504L7.93492 10.6759L3.83325 14.7775L6.57409 17.5184L3.83325 20.2592L6.57409 23L13.4166 16.1575L29.8424 32.5834L22.9999 39.4259L25.7408 42.1667L28.4816 39.4259L31.2224 42.1667L35.3241 38.065L38.0649 40.8059L40.8058 38.065L38.0649 35.3242L42.1666 31.2225L39.4258 28.4817Z" fill="black"/>
</svg>
